<svg id="Capa_1" data-name="Capa 1" xmlns="http://www.w3.org/2000/svg" viewBox="0 0 1351.63 477.89"><defs><style>.cls-1{fill:#06038d;}</style></defs><polygon class="cls-1" points="129.98 295.56 209.31 180.55 145.28 180.55 72.76 284.8 72.76 104.27 18.39 42.31 18.36 42.29 18.36 421.92 72.76 421.92 72.76 304.63 153.21 421.92 217.81 421.92 129.98 295.56"/><path class="cls-1" d="M443.65,365.22h-7.22c-29,0-43.14-16-43.14-48.7V232.35h89.2L437,180.54l-43.73.06V109L334.74,42.26h0V316.52c0,75.82,41.91,105.4,101.69,105.4l56.84-.15Z"/><path class="cls-1" d="M713.26,42.33V202.15l-7.47-5.76c-10.92-7.47-36.22-16.67-63.24-16.67-35.64,0-65.53,12.07-89.68,36.8C528.73,240.66,516.66,270,516.66,305c0,34.5,12.07,63.81,36.21,88.54,24.72,24.71,54.62,36.79,89.68,36.79,33.92,0,63.81-11.5,88.53-33.92s37.37-53.46,37.37-93.13V105.22ZM642.55,377.48c-39.66,0-70.7-31-70.7-72.44,0-42,31-72.43,70.7-72.43s70.71,30.47,70.71,72.43C713.26,346.44,683.37,377.48,642.55,377.48Z"/><path class="cls-1" d="M943.21,421.92h-54V277.62c0-69.88,39.2-97.71,92-97.71h25.27q0,26.23,0,52.45h-22a44.19,44.19,0,0,0-27.33,11.31c-14.35,13.17-14.09,31.21-14,34Z"/><path class="cls-1" d="M1278.13,427.51V408c-1.72,1.72-4.59,3.44-8.61,6.32-6.89,4.59-35,16.07-62,16.06q-53.4,0-89.57-36.18c-24.12-24.68-36.17-54-36.17-89,0-34.44,12.06-63.73,36.18-88.41,24.69-24.7,54.55-36.75,89.57-36.75,33.88,0,63.74,11.49,88.43,33.88s37.31,53.41,37.31,93V427.52Zm-70.62-50c39.62,0,70.63-30.43,70.63-72.34,0-41.34-29.86-72.35-70.62-72.36-39.62,0-70.63,31-70.63,72.35C1136.89,347.11,1167.89,377.54,1207.51,377.55Z"/></svg>