<svg id="Capa_1" data-name="Capa 1" xmlns="http://www.w3.org/2000/svg" viewBox="0 0 443.65 477.89"><defs><style>.cls-1{fill:#06038d;}</style></defs><path class="cls-1" d="M281.52,93.45h.06v.15h-.06Z"/><path class="cls-1" d="M355.25,80.1h0a20,20,0,0,1,20,20h0a20,20,0,0,1-20,20h0a20,20,0,0,1-20-20h0A20,20,0,0,1,355.25,80.1Z"/><path class="cls-1" d="M413.45,119.19h0a20,20,0,0,1,20,20h0a20,20,0,0,1-20,20h0a20,20,0,0,1-20-20h0A20,20,0,0,1,413.45,119.19Z"/><path class="cls-1" d="M382.5,336.53h0a20,20,0,0,1,20,20h0a20,20,0,0,1-20,20h0a20,20,0,0,1-20-20h0A20,20,0,0,1,382.5,336.53Z"/><path class="cls-1" d="M354.15,258.65h0a20,20,0,0,1,20,20h0a20,20,0,0,1-20,20h0a20,20,0,0,1-20-20h0A20,20,0,0,1,354.15,258.65Z"/><path class="cls-1" d="M315.69,311.43h0a20,20,0,0,1,20,20h0a20,20,0,0,1-20,20h0a20,20,0,0,1-20-20h0A20,20,0,0,1,315.69,311.43Z"/><path class="cls-1" d="M305.11,51.25h0a20,20,0,0,1,20,20h0a20,20,0,0,1-20,20h0a20,20,0,0,1-20-20h0A20,20,0,0,1,305.11,51.25Z"/><path class="cls-1" d="M357.73,166.93h0a20,20,0,0,1,20,20h0a20,20,0,0,1-20,20h0a20,20,0,0,1-20-20h0A20,20,0,0,1,357.73,166.93Z"/><path class="cls-1" d="M309.76,205.33h0a20,20,0,0,1,20,20h0a20,20,0,0,1-20,20h0a20,20,0,0,1-20-20h0A20,20,0,0,1,309.76,205.33Z"/><path class="cls-1" d="M287.07,274h0a20,20,0,0,0-20.05-20h0a20,20,0,0,0-20,20h0a20,20,0,0,0,20,20h0A20,20,0,0,0,287.07,274Z"/><path class="cls-1" d="M341.57,446.75a420,420,0,0,1-13.21-58.81,16.24,16.24,0,0,0-16.07-13.82h-14.6a16.26,16.26,0,0,1-16.26-16.26v-7.53a16.26,16.26,0,0,0-16.26-16.26h-7.54a16.26,16.26,0,0,1-16.26-16.26v-7.55A16.26,16.26,0,0,0,225.11,294h-7.55a16.26,16.26,0,0,1-16.26-16.26V270.2a16.26,16.26,0,0,1,16.26-16.26h7.55a16.26,16.26,0,0,0,16.26-16.26v-7.91a16.26,16.26,0,0,1,16.26-16.26h7.58a16.26,16.26,0,0,0,16.26-16.26v-7.36a16.26,16.26,0,0,1,16.26-16.26h7.54a16.25,16.25,0,0,0,16.25-16.26V149.8a16.25,16.25,0,0,0-16.24-16.26h-7.52a16.26,16.26,0,0,1-16.24-16.26v-7.42a16.27,16.27,0,0,0-16.25-16.26h-7.68a16.26,16.26,0,0,1-16.25-16.26V69.72a16.27,16.27,0,0,1,16.22-16.26h7.68a16.27,16.27,0,0,0,16.22-16.26h0a16.3,16.3,0,0,0-12.2-15.75,224.38,224.38,0,0,0-47-7.11C124,9.25,39.89,72.36,42.6,159.39,43,170.88,45,187.8,44.92,198.85c-.09,39.27-34.06,55.4-34.72,67.9-1.07,20.52,23,14.11,31.53,43.14,10.8,36.85-4.69,78.87,45.55,76.28,20-.81,52.6-8.58,66.56,4.39,8.9,8.28,16.07,44.39,18.86,60.37h0a9.26,9.26,0,0,0,9.14,7.65H332.65a9.25,9.25,0,0,0,8.92-11.83ZM143.83,133.68h0a20,20,0,0,1-20-20h0a20,20,0,0,1,20-20h0a20,20,0,0,1,20,20h0A20,20,0,0,1,143.83,133.68Zm80.1-24.76h0a20,20,0,0,1,20,20h0a20,20,0,0,1-20,20h0a20,20,0,0,1-20-20h0A20,20,0,0,1,223.93,108.92Zm-50,74.13h0a20,20,0,0,1,20-20h0a20,20,0,0,1,20,20h0a20,20,0,0,1-20,20h0A20,20,0,0,1,173.92,183.05ZM204.38,383.6h0a20,20,0,0,1-20-20h0a20,20,0,0,1,20-20h0a20,20,0,0,1,20,20h0A20,20,0,0,1,204.38,383.6Z"/></svg>